/* XPM */
static char *_07d0285e132461281f8ce4010af998bH6o37GhR16Wk2R2v[] = {
/* columns rows colors chars-per-pixel */
"48 48 165 2 ",
"   c None",
".  c #FF8705",
"X  c #FF8D07",
"o  c #FF8E07",
"O  c #FF8B08",
"+  c #FF9007",
"@  c #FF9409",
"#  c #FF990A",
"$  c #FF9B0B",
"%  c #FF9D0B",
"&  c #FF9F0B",
"*  c #FF9C0C",
"=  c #FF9F0C",
"-  c #FFA00B",
";  c #FFA00C",
":  c #FFA10C",
">  c #FFA20C",
",  c #FFA30C",
"<  c #FFA00F",
"1  c #FFA20E",
"2  c #FFA40C",
"3  c #FFA70C",
"4  c #FFA90C",
"5  c #FFA90D",
"6  c #FFAA0D",
"7  c #FFAD0D",
"8  c #FFAE0D",
"9  c #FEA210",
"0  c #FFA311",
"q  c #FEA412",
"w  c #FDA612",
"e  c #FFA114",
"r  c #FFA314",
"t  c #FEA714",
"y  c #FFA517",
"u  c #FFAA11",
"i  c #FFA812",
"p  c #FEA815",
"a  c #FDAB17",
"s  c #FBAF18",
"d  c #FBB018",
"f  c #FBB119",
"g  c #FBB11A",
"h  c #FBB31B",
"j  c #FEB019",
"k  c #FDB11B",
"l  c #FDB31B",
"z  c #FBB61B",
"x  c #FFB21C",
"c  c #FEB31D",
"v  c #FBB81D",
"b  c #FBB81F",
"n  c #FBB91F",
"m  c #FEB520",
"M  c #FBBB21",
"N  c #FEB821",
"B  c #FCBA21",
"V  c #FEB924",
"C  c #FEBB24",
"Z  c #FDBF26",
"A  c #FFB63A",
"S  c #FBC025",
"D  c #FDC228",
"F  c #FCC52A",
"G  c #FEC22C",
"H  c #FEC42C",
"J  c #FEC52E",
"K  c #FEC62E",
"L  c #FEC92E",
"P  c #FCCA2E",
"I  c #FCCB2F",
"U  c #FCCF33",
"Y  c #FCCC34",
"T  c #FECF35",
"R  c #FECC37",
"E  c #FCCD38",
"W  c #FCD034",
"Q  c #FDD135",
"!  c #FED135",
"~  c #FDD337",
"^  c #FED138",
"/  c #FDD438",
"(  c #FDD539",
")  c #FED539",
"_  c #FDD63A",
"`  c #FDD73A",
"'  c #FEDA3E",
"]  c #FDDC3E",
"[  c #FEC54A",
"{  c #FDDD40",
"}  c #FEDC40",
"|  c #FEDD41",
" . c #FEDF43",
".. c #FED249",
"X. c #FDD757",
"o. c #FEE043",
"O. c #FFE347",
"+. c #FEE446",
"@. c #FEE548",
"#. c #FEE649",
"$. c #FEE64A",
"%. c #FFE74A",
"&. c #FFE94D",
"*. c #FEEA4D",
"=. c #FEEC4E",
"-. c #FEED4F",
";. c #FFE052",
":. c #FFEF52",
">. c #FFEF54",
",. c #FFEF55",
"<. c #FFEC5E",
"1. c #FFF05A",
"2. c #FFF05B",
"3. c #FFF35D",
"4. c #FFCE6C",
"5. c #FEDA60",
"6. c #FDD863",
"7. c #FEDE6D",
"8. c #FEDC73",
"9. c #FEDF7D",
"0. c #FFE96F",
"q. c #FEEC6F",
"w. c #FFF460",
"e. c #FFF365",
"r. c #FFF664",
"t. c #FFF766",
"y. c #FFF169",
"u. c #FFF86A",
"i. c #FFF96A",
"p. c #FFF96B",
"a. c #FEE470",
"s. c #FEE17D",
"d. c #FEE17E",
"f. c #FFF379",
"g. c #FFDA87",
"h. c #FDE082",
"j. c #FDE183",
"k. c #FEE082",
"l. c #FFEF85",
"z. c #FEE88A",
"x. c #FEE98B",
"c. c #FEEB8C",
"v. c #FFF18B",
"b. c #FFF38A",
"n. c #FFF48B",
"m. c #FFF295",
"M. c #FFF594",
"N. c #FFF597",
"B. c #FFF598",
"V. c #FEECA8",
"C. c #FFF2A8",
"Z. c #FFF4B1",
"A. c #FFF7BA",
"S. c #FEEFC0",
"D. c #FEF1C2",
"F. c #FEF3C3",
"G. c #FEF4C5",
"H. c #FEF5C5",
"J. c #FFF5C6",
"K. c #FFF6C7",
"L. c #FFF8C2",
"P. c #FFF7C8",
"I. c #FFF9C9",
"U. c #FFFACA",
"Y. c #FFFACB",
/* pixels */
"                                                                                                ",
"                                                                                                ",
"                                                                                                ",
"                                                                                                ",
"                                                                                                ",
"                                                                                                ",
"                                                                                                ",
"                                                                                                ",
"                                                                                                ",
"                                                                                                ",
"                                                                                                ",
"                                    $ $ $                                                       ",
"                                x :.:.:.y.A.s.[ $ q                                             ",
"                              T t.~ I I I V.G.Y.Y.Y.L.s.$ H #.                                  ",
"                              u.=.=.I I I I S.S.S.S.D.P.Y.Z.e B.M.q.                            ",
"                            H ,.=.=.*.#.:. .X.S.S.S.S.S.S.G.C...n.M.v.                          ",
"                            1.=.=.w.<.< < j :.1.Y.Y.H.A.S.S.P.$ :.:.:.                          ",
"                            u.=.=.;.$ 7 7 7 3 , $ % g.Y.S.S.G.$ :.:.:.*.                        ",
"                          * #.*.3.X u o.` c $ $ , 7 4 4.G.S.G.$ :.:.:.:.                        ",
"                          V ~ ` u.% o.o.o.W I I I $ 7 % P.S.Y.$  .:.:.#.                        ",
"                          O.I I u.* o.` I I I I P O 3 < G.S.Y.x I I I                           ",
"                          :.I I r N U I I I I I P . 3 A S.S.s.Y I I I                           ",
"                        $ #.I  .+ D I I I I I I P @ 7 1.A.H.$ g.j.j.5.                          ",
"                        $ ] I #.$ I I I I I I I P % 6 ,.S.K.% 8.j.g.9.                          ",
"                        5.T I :.% I I I I I I I a $ 3 +.E Y.u Y I I                             ",
"                        M.g.I F $ I I I I I S z O 2 < / I 0.Z P I I                             ",
"                        M.h.a.q , P I I P z z z o 7 I P / V  .] ] T                             ",
"                      * c.h.g.Y $ 2 % j n z z a $ 7 u.Y #.$ ]  .]  .                            ",
"                      9 c.h.j.M.9 % 6 7 6 , $ % 7 , t.] :.r I I / `                             ",
"                      $ m.h.h.h.f.:.~ u % % , 6 , e.=.=.O.Z I I I                               ",
"                        l.x.h.h.h.Y ` #.:.:.3.u.u.,.=.,.H F I I I                               ",
"                        % v.M.c.h.g.P P I I I Y =.*.=.u.% n n n B                               ",
"                          $ r a.B.B.f.#.` U I I +.=.t.~ B n n n Z                               ",
"                                $ 9 $ H #.:.:.:.:.u.V j n n n n                                 ",
"                                          p $ $ $ q f s s s f                                   ",
"                                                  B h s f B                                     ",
"                                                                                                ",
"                                                                                                ",
"                                                                                                ",
"                                                                                                ",
"                                                                                                ",
"                                                                                                ",
"                                                                                                ",
"                                                                                                ",
"                                                                                                ",
"                                                                                                ",
"                                                                                                ",
"                                                                                                "
};
