/* XPM */
static char *_f893f80cdcc4cd8a61e8cb39323e942YHY1KhcMBsNhF0Xq[] = {
/* columns rows colors chars-per-pixel */
"48 48 188 2 ",
"   c None",
".  c #4A4346",
"X  c #4F464C",
"o  c #594845",
"O  c #514348",
"+  c #5C4649",
"@  c #544A4C",
"#  c #5C4E4D",
"$  c #5D504D",
"%  c #5E4C50",
"&  c #644B4B",
"*  c #6C4B4D",
"=  c #714D4F",
"-  c #62524D",
";  c #6D524A",
":  c #6F5B4F",
">  c #7A5647",
",  c #735549",
"<  c #7C554A",
"1  c #7E594A",
"2  c #765447",
"3  c #624E50",
"4  c #6C4F52",
"5  c #734E50",
"6  c #6E5154",
"7  c #745154",
"8  c #7A5455",
"9  c #7D5D52",
"0  c #7D5658",
"q  c #7F585A",
"w  c #845743",
"e  c #805946",
"r  c #865D4A",
"t  c #885949",
"y  c #965E4D",
"u  c #9C5E4E",
"i  c #845554",
"p  c #8C5454",
"a  c #835853",
"s  c #8A5955",
"d  c #835659",
"f  c #8A5758",
"g  c #84585A",
"h  c #8C5A5C",
"j  c #935D54",
"k  c #945D5D",
"l  c #A05E51",
"z  c #8E634D",
"x  c #80624D",
"c  c #9F6347",
"v  c #91624B",
"b  c #9D634D",
"n  c #956449",
"m  c #856452",
"M  c #8C6554",
"N  c #876952",
"B  c #8B6B52",
"V  c #8F6058",
"C  c #956454",
"Z  c #9C6354",
"A  c #926C52",
"S  c #986E52",
"D  c #94625B",
"F  c #98625A",
"G  c #957153",
"H  c #9B7153",
"J  c #AD6B44",
"K  c #A4634F",
"L  c #A4694B",
"P  c #AA6E4A",
"I  c #B46D45",
"U  c #BA6C43",
"Y  c #AF734C",
"T  c #B47047",
"R  c #B97147",
"E  c #B5734C",
"W  c #BD754C",
"Q  c #BB7E4E",
"!  c #A56451",
"~  c #AB6551",
"^  c #A36A54",
"/  c #A6655B",
"(  c #A56959",
")  c #AB6B5C",
"_  c #B26650",
"`  c #B66F51",
"'  c #BA6E51",
"]  c #B16758",
"[  c #AF7959",
"{  c #AB715C",
"}  c #B67254",
"|  c #B97452",
" . c #B1745C",
".. c #B47A59",
"X. c #BC7D5B",
"o. c #8F5D60",
"O. c #915E61",
"+. c #956162",
"@. c #9A6663",
"#. c #9C6863",
"$. c #9F7063",
"%. c #A16C65",
"&. c #A67064",
"*. c #AB7465",
"=. c #AB7C65",
"-. c #AD7768",
";. c #B57E66",
":. c #B27B69",
">. c #C0764E",
",. c #C67D4F",
"<. c #C66D52",
"1. c #CA7456",
"2. c #C57A52",
"3. c #CA7D56",
"4. c #C07D5F",
"5. c #CE7C59",
"6. c #C97555",
"7. c #D17F5B",
"8. c #BD8149",
"9. c #BB8253",
"0. c #BB8758",
"q. c #BC8B5B",
"w. c #BB8364",
"e. c #B9816B",
"r. c #BF8870",
"t. c #CC8256",
"y. c #CE845A",
"u. c #CB8A5B",
"i. c #C4835A",
"p. c #D18655",
"a. c #DA8D54",
"s. c #D3815D",
"d. c #D08A5D",
"f. c #C89159",
"g. c #DC945B",
"h. c #E29155",
"j. c #E2975B",
"k. c #E29A5F",
"l. c #C98A63",
"z. c #C0876B",
"x. c #C38A6B",
"c. c #C48964",
"v. c #D78760",
"b. c #D78D60",
"n. c #DA8B63",
"m. c #CB9165",
"M. c #CD9469",
"N. c #D69664",
"B. c #DB9464",
"V. c #D69B66",
"C. c #DA9D65",
"Z. c #D4996B",
"A. c #DA9F6A",
"S. c #DD9169",
"D. c #C38C73",
"F. c #CE9471",
"G. c #D89D72",
"H. c #E19C69",
"J. c #E19967",
"K. c #DCA16C",
"L. c #DFA171",
"P. c #E3A065",
"I. c #E3A56C",
"U. c #E6A96E",
"Y. c #E8AA6F",
"T. c #E8A36E",
"R. c #E3A574",
"E. c #EAA470",
"W. c #E7AA70",
"Q. c #ECA872",
"!. c #EAAD74",
"~. c #ECAE78",
"^. c #F1AF76",
"/. c #EEB075",
"(. c #ECB07C",
"). c #EFB179",
"_. c #F1B277",
"`. c #F2B477",
"'. c #F2B279",
"]. c #F3B57A",
"[. c #F5B67A",
"{. c #F6B77A",
"}. c #F5B579",
"|. c #F7B87B",
" X c #F6B87B",
".X c #F7B97C",
"XX c #F8BA7E",
"oX c #FABF85",
/* pixels */
"                                            oX{.|.                                              ",
"                                        oX.X{.{.|.|.|.                                          ",
"                                    oXXX.X.X|.).|.|.|.|.|.                                      ",
"                                ].XX|.|.[.R.-.] s.Q.|.|.|.|.|.                                  ",
"                              [./.!._.R.-.O.o.] <.<.s.E.|.XX{.{.|.                              ",
"                        .X'.'.[.{.G.-.@.O.O.@.i.1.<.<.1.n.T.{.|.|.|.|.                          ",
"                    |.|.|.|.'.G.:.@.O.O.@.;.M.V.N.d.1.<.<.1.v.E.|.|.|.|.|.                      ",
"                T.|.|.|.|.~.:.+.o.O.#.;.M.K.K.U.I.A.N.d.1.<.<.1.v._.|.|.|.|.G.                  ",
"                5.n.Q.{.XX].F.*.F w.M.A.I.U.Y.Y.U.U.I.A.N.d.6.7.H.{.XXXXR.e.#.                  ",
"              V.6.<.1.B.^.XXXX^.R.K.K.U.U.Y.Y.Y.Y.W.Y.U.K.K.E.].|.XX~.x.#.O.#.V.                ",
"          N.K.C.7.<.<.<.1.H.].|.XX|.~.Y.U.Y.Y.Y.Y.U.U.Y.~.{.|..X(.D.@.O.O.O.*.C.C.V.            ",
"          t.g.I.Y.J.7.<.<.<.1.S.].|.|.{./.W.U.Y.U.U.~._.`..X(.r.@.O.O.+.*.Z.E.R.x.*.            ",
"          2.2.3.B.I.U.J.5.<.<.<.6.B.^.{.XX].^.E.!.B.n.^.!.r.@.O.+.+.&.Z.W.I.z.#.O.O.            ",
"          2.2.3.2.3.g.I.W.J.7.<.<.<.1.n.^.XXXX{.{.{.R.*.+.O.O.+.*.Z.K.M.:.@.O.O.O.O.            ",
"            ^ | 2.2.2.3.b.U.W.H.7.<.<.<.1.n.^.].~.;.@.O.O.+.*.Z.K.M.=.-.O.O.O.g d               ",
"            ^ u L | 2.2.2.5.B.U.Y.B.7.<.<.<.1.l.%.O.O.+.*.x.U.R.;.$.e.;.+.h 0 , a               ",
"            ^ ~ K b ~ ' 2.2.2.t.B.U.U.J.7.<.<./ O.+.*.M.W.R.x.%.+.+.@.g 0 5 8 0 s               ",
"            ^ ! K ~ K u K ' 2.2.3.3.B.T.W.B.s.) *.M.W.I.z.%.O.O.V h 8 7 8 0 7 8 a               ",
"            ~ ~ ! ~ K ! ~ u ~ ` 2.2.2.3.B.T.E.A.U.L.z.#.O.O.k g 8 7 0 8 8 0 8 8 h               ",
"            <.<.~ K ~ K _ K ! b l W 2.3.2.3.B.W.x.#.O.O.O.h 8 7 0 7 0 7 8 8 g o.+.              ",
"              <.<.<.~ ! _ K ~ ~ ~ u K | 2.2.<. .o.+.+.h 7 7 8 8 8 8 7 8 g O.O.O.                ",
"                  <.<.<.~ l ~ ~ ~ ~ ! u K ' 2./ +.h 7 7 8 d 8 8 0 8 g +.O.O.                    ",
"                    y ~ <.<.~ K ~ ~ K ! ~ u u j 7 7 0 8 7 g 8 8 d O.O.d 5                       ",
"                    L b u _ <.<.~ K ~ K K K u ( 7 7 8 0 8 7 g O.O.d 5 5 7                       ",
"                    Y P L b n _ <.<.~ ! ~ ~ u ^ 7 7 8 8 g O.+.g 5 4 5 8 p                       ",
"                    W >.E v K b y _ <.<.K ~ u / 7 8 g O.O.d 5 5 5 5 k k k                       ",
"                    W >.W 1 - r K n y ~ <.<.l Z 8 O.O.d * 5 5 4 3 7 O.F k                       ",
"                    E E I 1 ; ; o 2 c b y _ <.&.O.d = 5 5 + O 4 4 8 k h p                       ",
"                    W >.W 1 ; ; & # @ 2 c c v s = 5 5 + . @ % 5 7 5 o.O.k                       ",
"                    E W R 1 ; ; $ - $ @ w P L r = 0 & @ # - % 4 7 8 k O.k                       ",
"                    W E T > , ; - - $ $ t W E j p k 7 @ 3 $ % 6 4 7 h k D                       ",
"                    >.>.W e ; ; - $ @ $ w >.W / k k & @ $ 3 3 6 7 7 f k O.                      ",
"                    I E >.1 ; ; - $ $ $ 1 E E Z h h 4 # $ $ 3 3 7 7 +.k k                       ",
"                    U R E 1 ; ; - $ $ $ n W W b k D 7 @ $ $ 3 6 6 7 h h k                       ",
"                    U U W 1 ; ; - - $ $ r W >./ k O.* @ # 3 3 6 7 8 k h k                       ",
"                    J I U 1 ; ; $ $ $ $ r E E ^ h h 4 # @ 3 # 6 6 8 k p h                       ",
"                    U T T 2 , ; - $ o @ v E W ( k k = X @ # 3 6 4 7 i f p                       ",
"                    U U U 1 , ; - @ X X 1 W >./ k p & X @ @ 3 6 7 7 p p p                       ",
"                    U J U > , 9 B m - . w R T Z p f * . 3 9 m 9 6 7 p i p                       ",
"                    U R J z A G G G N : n U U u p p 5 ; m C M C M 8 p p p                       ",
"                      ,.u.[ ^ H A B N G n I U u p s 9 M m m M C D ^ X.{                         ",
"                      M.K.U.u.[ A H H G L R I y p p i C C D D ( m.I.A.m.                        ",
"                    U.Z.i.u.K.I.f...^ H c U U K p p s D D ( l.I.B.l.w.Z.U.                      ",
"                  q.q.I.P.p...i.k.J.t.^ B J U u p i 5 Z t.k.j.c.X.d.U.I.q.q.                    ",
"                U.P.K.0.8.g.W.Z.| i.a.Q c U T u p p < _ h.2.} N.P.K.9.q.K.U.I.                  ",
"                  8.K.k.K.q.0.g.h.p.Z     U U l p p     j p.h.g.9.q.K.U.U.                      ",
"                        k.U.g.8.Y ^                       Z } 8.C.U.k.f.                        ",
"                          8.a...                                a.                              "
};
