/* XPM */
static char *a9937ee836214e0b912ffde0405ea6a5qBB2QAVC2x6lF7iD[] = {
/* columns rows colors chars-per-pixel */
"48 48 191 2 ",
"   c None",
".  c #5A303C",
"X  c #64353E",
"o  c #6B3A3E",
"O  c #713D3F",
"+  c #6D413F",
"@  c #563944",
"#  c #543740",
"$  c #185856",
"%  c #195B59",
"&  c #355356",
"*  c #3D5C58",
"=  c #1C625F",
"-  c #2C685E",
";  c #206D68",
":  c #23766C",
">  c #247771",
",  c #237D71",
"<  c #347773",
"1  c #514947",
"2  c #5F4252",
"3  c #545454",
"4  c #425855",
"5  c #69444B",
"6  c #7C4341",
"7  c #7E4C42",
"8  c #764040",
"9  c #6D4956",
"0  c #694755",
"q  c #7B4D55",
"w  c #7A4F59",
"e  c #764C5A",
"r  c #7D505A",
"t  c #6D555B",
"y  c #4B6459",
"u  c #6F6B5B",
"i  c #445C64",
"p  c #75586C",
"a  c #4B7C74",
"s  c #786C6A",
"d  c #6D6F69",
"f  c #8D4D43",
"g  c #834942",
"h  c #8D5143",
"j  c #955445",
"k  c #9B5646",
"l  c #9A5B47",
"z  c #9D5E48",
"x  c #85545D",
"c  c #8F585F",
"v  c #8C575E",
"b  c #A55A48",
"n  c #A05847",
"m  c #88635B",
"M  c #826E59",
"N  c #956555",
"B  c #857459",
"V  c #A1664B",
"C  c #A4684B",
"Z  c #AB6C4D",
"A  c #AE714E",
"S  c #B1744E",
"D  c #A86C51",
"F  c #B57551",
"G  c #B67A54",
"H  c #BB7B52",
"J  c #B7775C",
"K  c #AD7450",
"L  c #935A63",
"P  c #9B5E66",
"I  c #856D67",
"U  c #826477",
"Y  c #8A7A74",
"T  c #957975",
"R  c #9B7171",
"E  c #A3616A",
"W  c #A57874",
"Q  c #B17173",
"!  c #B07369",
"~  c #D37E5A",
"^  c #278A7A",
"/  c #2B8F78",
"(  c #288675",
")  c #2D957D",
"_  c #2F9B7C",
"`  c #318374",
"'  c #5D8579",
"]  c #418D72",
"[  c #7A8362",
"{  c #BC8259",
"}  c #99837E",
"|  c #8C8D70",
" . c #AC8D71",
".. c #CE875A",
"X. c #C8895A",
"o. c #C9905F",
"O. c #E9865F",
"+. c #D78060",
"@. c #D89867",
"#. c #C2857D",
"$. c #CA9672",
"%. c #C99473",
"&. c #FE8E63",
"*. c #EC946B",
"=. c #FE9E6E",
"-. c #FD9568",
";. c #FB9D72",
":. c #E29473",
">. c #DDA277",
",. c #C4A37E",
"<. c #E9A96E",
"1. c #EAA878",
"2. c #FDA374",
"3. c #FDAC7A",
"4. c #FBB775",
"5. c #FEB37E",
"6. c #F5B373",
"7. c #997E81",
"8. c #2A9E82",
"9. c #369E87",
"0. c #2BA485",
"q. c #2DB18B",
"w. c #35B88D",
"e. c #3DBE90",
"r. c #798F85",
"t. c #45B19C",
"y. c #75A188",
"u. c #50BFAB",
"i. c #4CBAA6",
"p. c #46C693",
"a. c #51CF96",
"s. c #58C6B3",
"d. c #6DCFBC",
"f. c #69D5C2",
"g. c #6ED9C5",
"h. c #72DCC9",
"j. c #76E0CD",
"k. c #7FE3D1",
"l. c #849A89",
"z. c #9F908F",
"x. c #878D96",
"c. c #B89687",
"v. c #A99E92",
"b. c #88A493",
"n. c #B2B89E",
"m. c #AAAB92",
"M. c #9FB8A7",
"N. c #ACBFB8",
"B. c #CB8F83",
"V. c #C78A80",
"C. c #CE9789",
"Z. c #D19D8D",
"A. c #C9AB83",
"S. c #D9A883",
"D. c #CBA692",
"F. c #C9B794",
"G. c #D4BB9A",
"H. c #CDB093",
"J. c #FFBD85",
"K. c #FDBA8A",
"L. c #FFBF93",
"P. c #E8A983",
"I. c #DDB9A0",
"U. c #99C3B7",
"Y. c #BFC1AA",
"T. c #D0C592",
"R. c #FFC38C",
"E. c #F0C791",
"W. c #DDC5A5",
"Q. c #D6C8AB",
"!. c #E6CEAE",
"~. c #E4C4A7",
"^. c #E2CCB4",
"/. c #88B9CA",
"(. c #92C7CC",
"). c #BCDACA",
"_. c #A0CFDF",
"`. c #A4DCD4",
"'. c #ADD1C7",
"]. c #89E7D6",
"[. c #92EADA",
"{. c #A4EBDE",
"}. c #BDEFDD",
"|. c #AFF4E7",
" X c #B8F7EB",
".X c #DCD9C4",
"XX c #D9EAD1",
"oX c #FFE5C2",
"OX c #CBFEF4",
"+X c #C2FBF0",
"@X c #D1F3E4",
/* pixels */
"                                                                    L.L.L.                      ",
"                                                                    L.L.L.L.                    ",
"                                                                    @.@.L.L.                    ",
"                                                                    ....J !                     ",
"                                                                    ....f f                     ",
"                                                                    ....f f                     ",
"                                                                    A ..f f                     ",
"                                                                    S F f f                     ",
"                                                                    A S f f                     ",
"                                                                    z A f f                     ",
"                                                                    h j g o                     ",
"                                                                    f f X .                     ",
"                                                                    . . .                       ",
"                    <.<.<.<.6.4.4.4.4.4.4.4.4.E.T.                  . .                         ",
"                o.o.o.o.o.o.@.@.4.4.4.4.4.E.XX|.|.|.].j.j.          . o                         ",
"              o.{ V V V V V { o.@...X.X.A.XXOXOXOXOX X|.j.j.        6 f                         ",
"            o.{ k b b b b b k A X.G A S Y.OXOXOXOXOXOXOX|.j.j.      k h                         ",
"            o.V n b b b b b b j o.{ C C  XOXOXOXOXOXOXOX).j.j.j.    S V                         ",
"            o.V b b b b b b b j o.G h h k.[. XOXOXOXOX^.*.n.j.j.    S S                         ",
"            o.V b b b b b b b j o.{ h v.|.|. XOXOXOX^.;.-.D.j.j.    k Z                         ",
"            X.V l k n j n b b j H { XX+XOXOXOXOX.X~.2.2.3.F.f.j.    f f                         ",
"            H V N } } s + b b n S } U.Y.'.|.|.[.-.2.L.3.3.F.s.h.j.  f f                         ",
"            H F Y /.x.s f j C H C + + + d h.f.f.3.J.5.5.6.,.s.f.j.b.f f                         ",
"              G T (.p g C A S H + + + + 7.|.].j.;.J.J.J.5.,.s.s.k.d.I f                         ",
"                z._.I j F A 7 + 5 1 1 1 [ OXOXOXF *.>.:.| 9.i.s.    F                           ",
"                  _.I u | [ 3 3 & = % $ < `.OXOXC ~ ~ M _ ) t.i.    K                           ",
"                      a.p.w.0.( ; ; l.n.b.< ).OXO.&.M ; ) ) t.u.    l                           ",
"                    a.a.e.e.q./ ; $ n.oXQ.y.U.@XS.S.o.y : ) t.u.    8                           ",
"                    a.p.e.q.q.^ ; ' !.!.~.m.< (.!.!.!.l.* d t.      o                           ",
"                    a.p.q.q.q.^ < b.!.!.W.H.' U.!.!.!.!.* u y.      J $.                        ",
"                    w.w.q.q.q.8.m.T.I.G.G.H.a m.!.!.!.!.} m +.-.=.R.R.R.                        ",
"                    q.q.q.q.q.8.G.~.~.P.c.} i } !.!.!.!.F.m +.&.2.J.J.J.                        ",
"                    q.q.q.q.^  .2.2.=.=.:.W 3 R Z.I.^.!.c.u v N { 1.K.J.                        ",
"                      0.8.8., | 2.3.4.J.J.J.R U B.Z.I.I.Y $       D 1.                          ",
"                      > / / ( (  .4.5.J.J.>.U 7.B.B.B.B.c.        8                             ",
"                      > _ _ _ _ ` u $.J.J.%.p s B.V.I.I.B.        X                             ",
"                      > _ _ _ _ , $ % $ & 2 0 9 Q C.Z.C.B.        .                             ",
"                        / / / / ; = = $ & 9 0 x Q V.Z.C.W       . .                             ",
"                          > : : ; % % $ & 9 9 w Q Q V.V.L       . .                             ",
"                                        t w w L E E Q Q E E     X 6                             ",
"                                        L P E E P P x L P E     o o                             ",
"                                        L E E P v x 0 w L E     6 6                             ",
"                                      E E E P c x 0 2 w c P E   O .                             ",
"                                      E E P c w 0   0 r v L E   X .                             ",
"                                        q q 9           w w P   . .                             ",
"                                        5 5             5 5     . .                             ",
"                                        e e               e     . .                             ",
"                                        @ @               @ #   . .                             "
};
