/* XPM */
static char *_b5758ab459943f9fe3ba35f17d268a0GiFlao6gphpABURE[] = {
/* columns rows colors chars-per-pixel */
"48 48 129 2 ",
"   c #5E6D3C",
".  c #56703E",
"X  c #616C3E",
"o  c #3B7B45",
"O  c #327E49",
"+  c #3B7D4D",
"@  c #3E7D51",
"#  c #447744",
"$  c #47794F",
"%  c #4F7C4C",
"&  c #587142",
"*  c #537849",
"=  c #4F7650",
"-  c #427C53",
";  c #497A57",
":  c #4E7B59",
">  c #5C755D",
",  c #5A7C5C",
"<  c #6A6F42",
"1  c #636F4E",
"2  c #607142",
"3  c #6D7146",
"4  c #6C734E",
"5  c #707248",
"6  c #7D695F",
"7  c #697B52",
"8  c #75755C",
"9  c #777F5A",
"0  c #5F7662",
"q  c #6E6268",
"w  c #716569",
"e  c #76696A",
"r  c #7C6E6C",
"t  c #657664",
"y  c #6C7667",
"u  c #617A65",
"i  c #6D7D64",
"p  c #6B7368",
"a  c #767767",
"s  c #787D67",
"d  c #73766A",
"f  c #7E726B",
"g  c #78786B",
"h  c #866B54",
"j  c #856C59",
"k  c #886F59",
"l  c #8A7159",
"z  c #827B5A",
"x  c #857160",
"c  c #897465",
"v  c #82746C",
"b  c #857E6C",
"n  c #8B7B6D",
"m  c #907A62",
"M  c #917F6F",
"N  c #867673",
"B  c #887773",
"V  c #867A72",
"C  c #8D7C71",
"Z  c #2E8049",
"A  c #36814C",
"S  c #3C814E",
"D  c #378850",
"F  c #388F53",
"G  c #399356",
"H  c #41814F",
"J  c #458251",
"K  c #4B8253",
"L  c #558357",
"P  c #5C8358",
"I  c #419459",
"U  c #64845C",
"Y  c #6C845F",
"T  c #6E8360",
"R  c #708460",
"E  c #7C8564",
"W  c #83A448",
"Q  c #8AA74D",
"!  c #92AC54",
"~  c #97AE58",
"^  c #838667",
"/  c #8B8061",
"(  c #868668",
")  c #8B856A",
"_  c #93866C",
"`  c #99876E",
"'  c #91886C",
"]  c #9B896D",
"[  c #8D8075",
"{  c #918070",
"}  c #928C70",
"|  c #9E8D72",
" . c #958778",
".. c #9C8D7B",
"X. c #9B9273",
"o. c #A19175",
"O. c #A59A76",
"+. c #A39478",
"@. c #A6987B",
"#. c #AB9F78",
"$. c #95A062",
"%. c #A5B663",
"&. c #B1BC6D",
"*. c #ADA27A",
"=. c #AFA97B",
"-. c #B0A67B",
";. c #B3A97D",
":. c #B9AF7D",
">. c #B0B472",
",. c #C3C67C",
"<. c #BEB680",
"1. c #C4BB81",
"2. c #C8BF85",
"3. c #CCC685",
"4. c #CBC187",
"5. c #CBCA82",
"6. c #CDC38A",
"7. c #D0CB86",
"8. c #D0CC86",
"9. c #D2CD87",
"0. c #D0C58D",
"q. c #D1C58F",
"w. c #D4CF89",
"e. c #D6D08B",
"r. c #D7D18C",
"t. c #D8D08E",
"y. c #D9D28E",
"u. c #D4C890",
"i. c #DBD490",
/* pixels */
"9.9.9.9.9.9.9.9.9.9.9.9.9.9.9.9.9.,.Q Q W %.w.9.9.9.9.9.9.9.9.9.9.9.9.9.9.9.9.9.9.9.9.9.9.9.9.9.",
"9.9.9.9.9.9.9.9.9.9.9.9.9.9.9.9.9.9.,.! %.,.9.9.9.9.9.9.9.9.9.9.9.9.9.9.9.9.9.9.9.9.9.9.9.9.9.9.",
"9.9.9.9.9.9.9.9.9.9.9.9.9.9.9.9.9.9.9.~ &.9.9.9.9.9.9.9.9.9.9.9.9.9.9.9.9.9.9.9.9.9.9.9.9.9.9.9.",
"9.9.9.9.9.9.9.9.9.9.9.9.9.9.9.9.9.7.0.~ >.9.9.9.9.9.9.9.9.9.9.9.9.9.9.9.9.9.9.9.9.9.9.9.9.9.9.9.",
"9.9.9.9.9.9.9.9.9.9.9.9.9.9.9.9.9.9.9.} =.9.9.9.9.9.9.9.9.9.9.9.9.9.9.9.9.9.9.9.9.9.9.9.9.9.9.9.",
"9.9.9.9.9.9.9.9.9.9.9.9.9.9.9.9.9.9.9.} =.9.9.9.9.9.9.9.9.9.9.9.9.9.9.9.9.9.9.9.9.9.9.9.9.9.9.9.",
"9.9.9.9.9.9.9.9.9.9.9.9.9.9.9.9.9.9.9.} =.9.9.9.9.9.9.9.9.9.9.9.9.9.9.9.9.9.9.9.9.9.9.9.9.9.9.9.",
"9.9.9.9.9.9.9.9.9.9.9.9.9.9.9.9.9.9.9.} =.9.9.9.9.9.9.9.9.9.9.9.9.9.9.9.9.9.9.9.9.9.9.9.9.9.9.9.",
"9.9.9.9.9.9.9.9.9.9.9.9.w.9.9.9.9.5.1.[ O.1.:.1.7.9.w.9.9.9.9.9.9.9.9.9.9.9.9.9.9.9.9.9.9.9.9.9.",
"9.9.9.9.9.9.9.9.y.e.e.y.i.i.r.3.1.1.;.) X.-.;.;.t.i.w.9.9.9.9.9.9.w.9.9.9.9.9.9.9.9.9.w.9.w.y.9.",
"1.1.1.1.1.1.1.1.6.6.4.q.q.u.4.:.*.=.;./ X.*.-.;.q.u.4.1.1.1.1.1.1.1.1.1.1.1.1.1.1.1.1.1.1.2.q.1.",
"` ` ` ` ` ` ` ` ` ` ` ` ` ` ` ` | *.;.l ] -.-.#.] ` ` ` ` ` ` ` ` ` ` ` ` ` ` ` ` ` ` ` ` ` ` ` ",
"` ` ` ` ` ` ` ` ` ` ` ` ` ` ` ` ` | *.l | ;.#.] ` ` ` ` ` ` ` ` ` ` ` ` ` ` ` ` ` ` ` ` ` ` ` ` ",
"` ` ` ` ` ` ` ` ` ` ` ` ` ` ` ` ` | ;.l m O.#.] ` ` ` ` ` ` ` ` ` ` ` ` ` ` ` ` ` ` ` ` ` ` ` ` ",
"` ` ` ` ` ` ` ` ` ` ` ` ` ` ` ` ` ` O.l m ] o.` ` ` ` ` ` ` ` ` ` ` ` ` ` ` ` ` ` ` ` ` ` ` ` ` ",
"` ` ` ` ` ` ` ` ` ` ` ` ` ` ` ` ` ` ` l m ` ` ` ` ` ` ` ` ` ` ` ` ` ` ` ` ` ` ` ` ` ` ` ` ` ` ` ",
"` ` ` ` ` ` ` ` ` ` ` ` ` ` ` ` ` _ M k m ` ` ` ` ` ` ` ` ` ` ` ` ` ` ` ` ` ` ` ` ` ` ` ` ` ` ` ",
"` ` ` ` ` ` ` ` ` ` ` ` ` ` ` ` _ N B j m ` ` ` ` ` ` ` ` ` ` ` ` ` ` ` ` ` ` ` ` ` ` ` ` ` ` ` ",
"` ` ` ` ` ` ` ` ` ` ` ` ` ` ` _ N N B j m ` ` ` ` ` ` ` ` ` ` ` ` ` ` ] ` ] ` ` ` ` | ` ` ` ` ` ",
"C C B C C B C C C c k k k k k k j j j h h k c C C C C C C C k j l k k k h l k l B C B C C B C C ",
"..........M { { M n c m m m m m m m m c m m m M M M M M M M m m m k e m m ` ` | ..............M ",
"+.+.+.+.| ` ` ` ` M C ` ` ` ` ` ` ` ` ` ` ` ` ` ` ` ` ` ` ` ` ` ` n v ` ` o.+.+.+.+.+.+.+.+.o.` ",
"` ` ` ` ` ` ` ` ` M C ` ` ` ` ` ` ` ` ` ` ` ` ` ` ` ` ` ` ` ` ` ` M C ` ` ` ` ` ` ` ` ` ] ` ` ` ",
"` ` ` ` ` ` ` ` ` M B ` ` ` ` ` ` ` ` ` ` ` ` ` ` ` ` ` ` ` ` ` ` M B ` ` ` ` ` ` ` ` ` ` ` ` ` ",
"` ` ` ` ` ` ` ` ` M B ` ` ` ` ` ` ` ` ` ` ` ` ` ` ` ` ` ` ` ` ` ` { C ` ` ` ` ` ` ` ` ` ` ` ` ` ",
"` ` ` ` ` ` ` ` ` n r ` ` ` ` ` ` ` ` ` ` ` ` ` ` ` ` ` ` ` ` ` ` n r ` ` ` ` ` ` ` ` ` ` ` ` ` ",
"C C C C n v v v v e w v v n C C C C C ` ` ` ` ` M M C C C M C C N e e M C C C C n n r v v r v M ",
"C C  .C n r q e r v f r r n C M C M M { ` ` ` ` C C C  . . . . .[ V B  . . . .n M C v w e v v n ",
"` ` ` ` ` ` e n ` ` ` ` ` ` ` ` | ` ` ` ` ` ` ` ` ` ` | @.@.@.@.@.@.@.@.@.@.| ` ` ` ` r n ` ` ` ",
"` ` ` ` ` ` N _ ` ` ` ` ` ` ` ` ` ` ` ` ` ` ` ` ` ` ` ` ` ` ` ` ` ` ` ` ` ` ` ` ` ` ` C M ` ` ` ",
"` ` ` ` ` ` N _ ` ` ` ` ` ` ` ` ` ` ` ` ` ` ` ` ` ` ` ` ` ` ` ` ` ` ` ` ` ` ` ` ` ` ` C M ` ` ` ",
"` ` ` ` ` ` B M ` ` ` ` ` ` ` ` ` ` ` ` ` ` ` ` ` ` ` ` ` ` ` ` ` ` ` ` ` ` ` ` ` ` ` B _ ` ` ` ",
"` ` ` ` } ` B  .` ` ` ` ` ` ` ` ` ` ` ` ` ` ` ` ` ` ` ` ` ` ` ` ` ` ` ` ` ` ` ` ` ` ` C i P Y _ ",
"` ` ` ) T T f T T E | { ` ` ` ` ` ` ` ` ` ` ` ` ` ` ` ` ` _ R Y ( ` ` ` ` ` ` ` ) Y Y g : Z K ` ",
"` ` ` Y O O p @ O K E E ` ` ` ` ` ` ` ` ` ` ` ` ` ` ` ` ` _ A Z Y ` ` ` ` ` ` ` ^ Z Z 0 , K P ` ",
"` _ _ Y O @ p @ O O Z A ( _ _ ` ` ) _ _ _ ` ` _ ) ` ` _ _ ( S A Y ) _ _ _ ) _ ' E Z Z > b _ ' ` ",
"` : A P _ ) d @ Z O Z Z A A R ` E A A A R _ ^ A A ^ ` R A S ) _ P A A A A A A A A A Z 0 ; A K ` ",
"_ J Z A K K p @ Z L E E A Z S K J A E E _ | E Z A E ` Y A A ) ` P Z Z Z Z Z Z Z J E E d ; Z A K ",
"' E Y K O O 1 + Z S P L A Z Z Z Z A ) ` R P K Z Z ^ ` Y Z O P P U Y Y Y A Z Z Z J _ ` g ; Z Z Z ",
"b b b 9 ; ;   = - $ # # - ; ; ; @ A Y Y K + ; ; - s b i - ; # # 7 z z b : ; ; ; , b b d > ; ; ; ",
"0 0 t t g a . > y 8 3 2 > t 0 t i K K K K , a > 0 0 d g g a &   3 5 4 t 0 u u u u u u u u 0 t g ",
"G Z A U ` ' A A R ` /   O A A U ` ` _ ` ` ` ^ A A A Y ' ` ' S & z ` R A A F G G G I I G D A L ` ",
"Z Z Y _ ` _ A E ` _ /   O E ) _ ` ` ` _ ` ` ` _ _ ) P U ` ` ' 3 z Y K ' ' J Z Z K ' ' K Y _ _ _ ",
"D Z Y ` ( H Z ^ ` E *   O ^ ` ` ^ K K K E _ ` ` ` ` P P ` ` ] 3 * U ( ` ` ( L K ( _ K A Y ` ` ` ",
"Y S K P L Z Z K E ^ 7   O K E ` E A U Y ( ] ( P P P S P ` _ U   7 E ` ` _ ` P P ` ` R Y U P U ` ",
"` K Z Z A P P A T ` /   O O L Y P A _ ` ^ Y P Z Z L P U Y U A . z ^ Y Y Y Y K J Y Y ` ` P Z S Y ",
"E H Z Z J ` ` K P E 9   O Z Z Z Z A E E K O Z Z Z E ` Y Z Z Z . z Y Z Z Z Z Z Z Z A R ^ L Z Z Z ",
"Z Z Z Z K ` ` K Z Z o   O Z Z Z Z Z Z Z Z Z Z Z Z E ` Y Z Z Z . z Y Z Z Z Z Z Z Z Z Z Z Z Z Z Z "
};
